<svg width="20" height="18" viewBox="0 0 20 18" fill="none" xmlns="http://www.w3.org/2000/svg">
<path fill-rule="evenodd" clip-rule="evenodd" d="M17.6286 17.6627C18.086 18.1124 18.825 18.1124 19.2824 17.6627C19.7399 17.213 19.7399 16.5047 19.2824 16.055L15.6698 12.5921C16.6902 11.2767 17.3002 9.64647 17.3002 7.88132C17.3002 3.53029 13.6171 0 9.0778 0C4.53851 0 0.855469 3.53029 0.855469 7.88132C0.855469 12.2324 4.53851 15.7626 9.0778 15.7626C10.9193 15.7626 12.6318 15.178 14.0042 14.1886L17.6286 17.6627ZM3.20136 7.88132C3.20136 4.77826 5.82875 2.24859 9.0778 2.24859C12.3151 2.24859 14.9425 4.76702 14.9425 7.88132C14.9425 10.9844 12.3151 13.5141 9.0778 13.5141C5.84048 13.5028 3.20136 10.9844 3.20136 7.88132Z" fill="#BBBBBC"/>
</svg>
