<svg width="24" height="14" viewBox="0 0 24 14" fill="none" xmlns="http://www.w3.org/2000/svg">
<path fill-rule="evenodd" clip-rule="evenodd" d="M0.203125 3C0.203125 2.45 0.672376 2 1.24591 2H4.03011C4.23867 2 4.41596 1.87994 4.50981 1.68994C5.01035 0.689941 6.07399 0 7.3149 0C8.55581 0 9.60902 0.689941 10.12 1.68994C10.2138 1.86994 10.3911 2 10.5996 2H22.1015C22.675 2 23.1443 2.45 23.1443 3C23.1443 3.55 22.675 4 22.1015 4H10.5892C10.3807 4 10.2034 4.12006 10.1095 4.31006C9.60901 5.31006 8.54537 6 7.30446 6C6.06355 6 5.01034 5.31006 4.49938 4.31006C4.40553 4.13006 4.22823 4 4.01967 4H1.24591C0.672376 4 0.203125 3.55 0.203125 3ZM22.1015 10H19.3173C19.1088 10 18.9315 9.87994 18.8376 9.68994C18.3371 8.68994 17.2734 8 16.0325 8C14.7916 8 13.7384 8.68994 13.2274 9.68994C13.1336 9.86994 12.9564 10 12.7478 10H1.24591C0.672376 10 0.203125 10.45 0.203125 11C0.203125 11.55 0.672376 12 1.24591 12H12.7582C12.9667 12 13.144 12.1201 13.2379 12.3101C13.7384 13.3101 14.8021 14 16.043 14C17.2839 14 18.3371 13.3101 18.848 12.3101C18.9419 12.1301 19.1192 12 19.3278 12H22.1015C22.675 12 23.1443 11.55 23.1443 11C23.1443 10.45 22.675 10 22.1015 10Z" fill="#BBBBBC"/>
</svg>
